<svg xmlns="http://www.w3.org/2000/svg" width="200" height="63" viewBox="0 0 200 63" fill="none"><path d="M31.3164 18.432C32.4865 18.432 33.5665 18.1026 33.5665 15.7111V7.00195H29.0625V15.7111C29.0625 18.1026 30.1463 18.432 31.3164 18.432Z" fill="#C5E99F"></path><path d="M19.3862 25.3057C19.9713 24.2952 20.2263 23.1949 18.1487 21.9972L10.5919 17.6445L8.3418 21.5369L15.8985 25.8896C17.9761 27.0835 18.8012 26.3162 19.3862 25.3057Z" fill="#C5E99F"></path><path d="M19.3882 39.05C18.8032 38.0395 17.9744 37.2685 15.9005 38.4662L8.34375 42.8189L10.5939 46.7112L18.1506 42.3585C20.2282 41.1609 19.9732 40.0605 19.3882 39.05Z" fill="#C5E99F"></path><path d="M47.3156 32.175C48.1031 31.9392 48.9169 31.5837 49.7495 31.1046L57.3062 26.7519L55.2848 23.26L47.7281 27.6165C44.9642 29.2108 42.7928 28.5035 41.5177 26.3028C40.2426 24.1021 40.7189 21.8715 43.4829 20.2771L51.0396 15.9244L49.0182 12.4325L41.4615 16.7852C40.6214 17.268 39.9089 17.7958 39.3051 18.3609C39.4964 17.56 39.6014 16.6804 39.6014 15.7148V7.00195H35.5624V15.7111C35.5624 18.8961 33.8635 20.4231 31.3171 20.4231C28.7707 20.4231 27.0718 18.8998 27.0718 15.7111V7.00195H23.0291V15.7111C23.0291 16.6767 23.1341 17.5562 23.3216 18.3609C22.7216 17.7958 22.0053 17.268 21.169 16.7852L13.6122 12.4288L11.5909 15.9207L19.1476 20.2734C21.9115 21.8678 22.3878 24.0946 21.1127 26.2991C19.8376 28.4997 17.6662 29.2071 14.9023 27.6127L7.3456 23.26L5.32422 26.7519L12.8809 31.1046C13.7172 31.5874 14.531 31.9392 15.3148 32.1788C14.5273 32.4145 13.7135 32.7701 12.8809 33.2492L5.32422 37.6056L7.3456 41.0975L14.9023 36.741C17.6662 35.1467 19.8376 35.854 21.1127 38.0547C22.3878 40.2554 21.9115 42.486 19.1476 44.0804L11.5909 48.4331L13.6122 51.925L21.169 47.5723C22.0128 47.0857 22.7328 46.5543 23.3366 45.9891C23.1378 46.805 23.0328 47.6995 23.0328 48.6838V57.393H27.0756V48.6838C27.0756 45.4988 28.7744 43.9718 31.3208 43.9718C33.8673 43.9718 35.5661 45.4951 35.5661 48.6838V57.393H39.6089V48.6838C39.6089 47.6958 39.5001 46.8013 39.3051 45.9854C39.9089 46.5543 40.6289 47.0857 41.469 47.5723L49.0257 51.925L51.0471 48.4331L43.4904 44.0804C40.7264 42.486 40.2502 40.2591 41.5252 38.0547C42.8003 35.854 44.9717 35.1467 47.7356 36.741L55.2923 41.0975L57.3137 37.6056L49.757 33.2529C48.9132 32.7701 48.0994 32.4145 47.3156 32.175ZM38.255 36.1759C37.0887 38.1932 36.6574 40.218 37.0324 42.0893C35.5999 40.8467 33.6422 40.2142 31.3171 40.2142C28.9994 40.2142 27.0418 40.8542 25.6092 42.0968C25.9843 40.2255 25.5492 38.2007 24.3792 36.1796C23.2241 34.1848 21.7052 32.8075 19.9201 32.1862C21.7052 31.565 23.2203 30.1839 24.3792 28.1853C25.538 26.183 25.9693 24.177 25.613 22.3206C27.0456 23.5594 28.9994 24.1882 31.3171 24.1882C33.631 24.1882 35.5811 23.5519 37.0137 22.3169C36.6537 24.1732 37.0962 26.183 38.255 28.1853C39.4101 30.1802 40.9289 31.5575 42.7141 32.1788C40.9252 32.7926 39.4101 34.1773 38.255 36.1759Z" fill="#115D5B"></path><path d="M43.2436 39.05C42.6586 40.0605 42.4035 41.1609 44.4812 42.3585L52.0379 46.7112L54.288 42.8189L46.7313 38.4662C44.6574 37.2685 43.8286 38.0395 43.2436 39.05Z" fill="#C5E99F"></path><path d="M43.2428 25.3057C43.8279 26.3162 44.6529 27.0872 46.7306 25.8896L54.2873 21.5369L52.0371 17.6445L44.4804 21.9972C42.4065 23.1949 42.6616 24.2952 43.2428 25.3057Z" fill="#C5E99F"></path><path d="M31.3165 45.9629C30.1465 45.9629 29.0664 46.2922 29.0664 48.6838V57.3929H33.5704V48.6838C33.5667 46.2922 32.4866 45.9629 31.3165 45.9629Z" fill="#C5E99F"></path><path d="M101.006 32.2903C101.006 23.0273 107.813 16.2344 117.466 16.2344C127.119 16.2344 133.925 23.0273 133.925 32.2903C133.925 41.5534 127.119 48.35 117.466 48.35C107.816 48.35 101.006 41.5571 101.006 32.2903ZM126.444 32.2903C126.444 26.9196 122.855 23.0909 117.469 23.0909C112.084 23.0909 108.435 26.9196 108.435 32.2903C108.435 37.6648 112.088 41.4935 117.469 41.4935C122.851 41.4935 126.444 37.6648 126.444 32.2903Z" fill="#115D5B"></path><path d="M66.7598 31.6471C66.7598 21.4521 72.8276 16.2012 81.8657 16.2012C90.9038 16.2012 96.9716 21.3885 96.9716 31.6471V47.5234H89.6062V31.6471C89.6062 25.8385 86.5122 23.0614 81.8695 23.0614C77.2267 23.0614 74.1327 25.8422 74.1327 31.6471V47.5234H66.7673V31.6471H66.7598Z" fill="#115D5B"></path><path d="M137.82 34.4241V17.0059H145.186V34.4279C145.186 39.4318 147.785 41.4715 151.377 41.4715C154.906 41.4715 157.569 39.3719 157.569 34.4279V17.0059H164.934V34.4279C164.934 39.3719 167.533 41.4715 171.062 41.4715C174.651 41.4715 177.254 39.4318 177.254 34.4279V17.0059H184.619V34.4279C184.619 44.0053 179.05 48.3281 171.805 48.3281C167.162 48.3281 163.386 46.4118 161.222 42.8301C158.994 46.4118 155.218 48.3281 150.635 48.3281C143.389 48.3243 137.82 44.0016 137.82 34.4241Z" fill="#115D5B"></path></svg>